#!OML:ASF G:\ViconDB\ViconDB\414\test\team2\shane.ASF
:FULLY-SPECIFIED
:DEGREES
313
root 15.3255 16.5438 4.94015 -183.388 28.5717 -169.746
lowerback 10.0357 -2.88701 0.197478
upperback 3.90601 -3.42602 2.91329
thorax -1.38714 -1.59085 3.27798
lowerneck -16.4477 -4.04505 -9.49381
upperneck 23.0321 -4.40522 6.97322
head 10.4765 -1.87031 3.5072
rclavicle 1.82633e-014 -1.82882e-014
rhumerus -46.7993 -10.2327 -70.5087
rradius 22.2128
rwrist 50.1755
rhand -28.3831 -12.3701
rfingers 7.12502
rthumb -1.75596 -42.3426
lclavicle 1.82633e-014 -1.82882e-014
lhumerus -16.5496 -16.352 93.9768
lradius 35.4443
lwrist -22.0072
lhand -41.7199 4.80194
lfingers 7.12502
lthumb -14.6253 34.2662
rfemur -15.4852 -22.1019 20.8489
rtibia 28.1449
rfoot -21.696 16.0081
rtoes -14.0934
lfemur 29.5828 -2.86792 -11.9004
ltibia 2.22639e-014
lfoot -13.4123 -36.0308
ltoes -6.17346
314
root 15.4549 16.524 4.82217 -183.675 27.867 -170.137
lowerback 10.1388 -2.89092 -0.0307966
upperback 3.73543 -3.46493 2.81921
thorax -1.61041 -1.61475 3.32379
lowerneck -16.396 -4.15493 -9.25742
upperneck 23.3534 -4.55591 6.72948
head 10.5866 -1.9396 3.36531
rclavicle 2.44754e-014 -2.5842e-014
rhumerus -47.0161 -10.7991 -70.2548
rradius 22.0205
rwrist 49.9506
rhand -28.441 -12.5028
rfingers 7.12502
rthumb -1.8118 -42.4749
lclavicle 2.44754e-014 -2.5842e-014
lhumerus -17.0769 -15.9646 94.0589
lradius 35.3181
lwrist -22.2635
lhand -41.6824 4.59293
lfingers 7.12502
lthumb -14.5891 34.0598
rfemur -14.8125 -21.1302 20.5813
rtibia 28.6393
rfoot -21.9983 15.5562
rtoes -13.9113
lfemur 30.1395 -3.48826 -12.0776
ltibia 4.13472e-014
lfoot -12.4553 -36.2897
ltoes -6.27732
315
root 15.5875 16.519 4.69049 -183.786 27.1684 -170.305
lowerback 9.94147 -2.98441 -0.137264
upperback 3.64211 -3.60428 2.91647
thorax -1.57784 -1.6879 3.49147
lowerneck -16.34 -4.15578 -9.5558
upperneck 23.4153 -4.51319 6.88689
head 10.6069 -1.92608 3.48187
rclavicle -9.26834e-015 -3.73715e-014
rhumerus -46.9878 -11.4064 -69.5662
rradius 21.7126
rwrist 50.8643
rhand -28.4598 -12.5594
rfingers 7.12502
rthumb -1.83003 -42.5313
lclavicle -9.26834e-015 -3.73715e-014
lhumerus -17.6154 -15.6103 94.2279
lradius 35.2526
lwrist -22.2617
lhand -41.5641 4.54701
lfingers 7.12502
lthumb -14.4752 34.0221
rfemur -14.1944 -19.5928 20.4125
rtibia 29.193
rfoot -22.1135 15.4522
rtoes -12.6412
lfemur 30.6827 -4.08498 -12.1098
ltibia -6.36111e-014
lfoot -11.8083 -36.255
ltoes -7.38309
316
root 15.7205 16.521 4.55681 -183.972 26.4595 -170.557
lowerback 9.98688 -2.98594 -0.275517
upperback 3.48224 -3.6251 2.92936
thorax -1.75755 -1.70016 3.59299
lowerneck -16.385 -4.29322 -9.31791
upperneck 23.6842 -4.64153 6.42375
head 10.7098 -2.01261 3.25947
rclavicle 6.3052e-014 -2.98177e-014
rhumerus -47.1586 -12.2127 -68.9786
rradius 21.4285
rwrist 51.6653
rhand -28.6213 -12.6697
rfingers 7.12502
rthumb -1.98597 -42.6402
lclavicle 6.3052e-014 -2.98177e-014
lhumerus -18.1478 -15.4381 94.408
lradius 34.9428
lwrist -22.3465
lhand -41.5143 4.6225
lfingers 7.12502
lthumb -14.4272 34.101
rfemur -13.9782 -19.4794 20.3288
rtibia 29.8776
rfoot -21.6016 16.5163
rtoes -11.6702
lfemur 31.2409 -4.67359 -12.2658
ltibia -2.8625e-014
lfoot -11.3948 -36.2663
ltoes -8.23492
317
root 15.8518 16.5238 4.41931 -184.028 25.691 -170.565
lowerback 9.77709 -3.05646 -0.180377
upperback 3.26557 -3.72068 2.99894
thorax -1.86295 -1.75082 3.61755
lowerneck -15.7797 -4.25488 -9.65296
upperneck 23.5432 -4.62008 6.78405
head 10.5573 -1.99155 3.45421
rclavicle 1.46728e-014 -1.11319e-014
rhumerus -47.4433 -12.9978 -68.3321
rradius 21.18
rwrist 52.7233
rhand -28.7685 -12.984
rfingers 7.12502
rthumb -2.12817 -42.9532
lclavicle 1.46728e-014 -1.11319e-014
lhumerus -19.1325 -15.5795 94.6531
lradius 34.8281
lwrist -22.1592
lhand -41.725 5.08624
lfingers 7.12502
lthumb -14.6302 34.5502
rfemur -13.8793 -19.3962 20.3949
rtibia 30.4714
rfoot -19.5279 17.2564
rtoes -9.19491
lfemur 31.7742 -5.31727 -12.2444
ltibia -6.36111e-015
lfoot -11.2561 -36.0733
ltoes -9.71221
318
root 15.9804 16.5279 4.28229 -184.049 24.9232 -170.42
lowerback 9.76543 -3.06744 0.0601739
upperback 3.14071 -3.70427 3.13192
thorax -1.99395 -1.73919 3.62319
lowerneck -15.7081 -4.39117 -9.65075
upperneck 23.6309 -4.78359 6.67629
head 10.5894 -2.07592 3.39397
rclavicle -1.38466e-014 2.3059e-014
rhumerus -47.4785 -13.8974 -67.7647
rradius 20.7419
rwrist 53.5755
rhand -29.183 -13.2422
rfingers 7.12502
rthumb -2.52844 -43.207
lclavicle -1.38466e-014 2.3059e-014
lhumerus -19.6628 -15.4031 94.9018
lradius 34.3143
lwrist -22.1461
lhand -41.7988 4.9692
lfingers 7.12502
lthumb -14.7013 34.4279
rfemur -13.5632 -18.9174 20.4958
rtibia 30.9509
rfoot -17.299 16.2686
rtoes -6.44999
lfemur 32.278 -6.01498 -11.9941
ltibia -1.59028e-014
lfoot -10.0063 -36.1741
ltoes -10.3588
319
root 16.104 16.5343 4.13686 -183.996 24.2506 -170.158
lowerback 9.60156 -3.13501 0.542439
upperback 3.02174 -3.744 3.24442
thorax -2.04931 -1.75612 3.46865
lowerneck -15.8572 -4.3421 -9.59545
upperneck 23.9838 -4.68917 6.62146
head 10.7364 -2.02373 3.38635
rclavicle -8.16881e-015 -6.55989e-015
rhumerus -47.4494 -14.6949 -67.2834
rradius 20.4942
rwrist 54.3696
rhand -29.0264 -13.1678
rfingers 7.12502
rthumb -2.37721 -43.1343
lclavicle -8.16881e-015 -6.55989e-015
lhumerus -20.2837 -15.2553 95.0405
lradius 33.6727
lwrist -22.0214
lhand -41.6566 4.609
lfingers 7.12502
lthumb -14.5643 34.0777
rfemur -12.9078 -18.3112 20.6617
rtibia 31.272
rfoot -16.7419 13.5129
rtoes -6.30645
lfemur 32.7845 -6.65937 -11.55
ltibia -3.49861e-014
lfoot -8.25445 -36.287
ltoes -11.5493
320
root 16.2252 16.5314 3.99421 -183.878 23.7062 -169.772
lowerback 9.33473 -3.16121 1.10683
upperback 2.90136 -3.71873 3.44178
thorax -2.05248 -1.73975 3.3434
lowerneck -15.5353 -4.40894 -9.44366
upperneck 23.956 -4.71814 6.15807
head 10.6517 -2.07819 3.18938
rclavicle 8.70739e-014 -2.34566e-014
rhumerus -47.2709 -15.0093 -67.1087
rradius 20.089
rwrist 54.9342
rhand -29.1619 -13.3973
rfingers 7.12502
rthumb -2.50808 -43.3623
lclavicle 8.70739e-014 -2.34566e-014
lhumerus -20.9803 -14.9543 95.3627
lradius 32.9539
lwrist -21.9695
lhand -41.7796 5.13767
lfingers 7.12502
lthumb -14.6828 34.5978
rfemur -12.1967 -17.6558 20.9714
rtibia 31.469
rfoot -17.2617 11.1282
rtoes -8.43974
lfemur 33.2763 -7.16536 -11.021
ltibia -9.54166e-015
lfoot -6.66601 -36.2377
ltoes -12.8188
321
root 16.3443 16.5323 3.85473 -183.978 23.1639 -169.745
lowerback 9.10043 -3.14326 1.36892
upperback 2.93656 -3.67349 3.48132
thorax -1.90357 -1.7151 3.21756
lowerneck -15.6656 -4.46064 -9.37419
upperneck 24.0218 -4.77982 6.09109
head 10.7033 -2.10502 3.14451
rclavicle 8.70739e-014 -2.34566e-014
rhumerus -47.2709 -15.0093 -67.1087
rradius 20.089
rwrist 54.9342
rhand -29.1619 -13.3973
rfingers 7.12502
rthumb -2.50808 -43.3623
lclavicle 6.63568e-014 -1.59028e-014
lhumerus -21.3201 -14.424 95.3603
lradius 31.9014
lwrist -22.639
lhand -41.7639 5.36731
lfingers 7.12502
lthumb -14.6677 34.8285
rfemur -11.4271 -17.818 20.8132
rtibia 31.5968
rfoot -17.2529 11.0758
rtoes -7.68784
lfemur 33.744 -7.61846 -10.9114
ltibia -2.8625e-014
lfoot -4.79965 -36.2118
ltoes -14.1781
